<?xml version="1.0" standalone="no"?>
<!DOCTYPE svg PUBLIC "-//W3C//DTD SVG 20010904//EN"
 "http://www.w3.org/TR/2001/REC-SVG-20010904/DTD/svg10.dtd">
<svg version="1.0" xmlns="http://www.w3.org/2000/svg"
 width="600.000000pt" height="600.000000pt" viewBox="0 0 600.000000 600.000000"
 preserveAspectRatio="xMidYMid meet">
<metadata>
Created by potrace 1.11, written by Peter Selinger 2001-2013
</metadata>
<g transform="translate(0.000000,600.000000) scale(0.100000,-0.100000)"
fill="#000000" stroke="none">
<path d="M3648 5322 c-13 -15 -35 -32 -49 -39 -22 -10 -29 -8 -46 9 -29 29
-86 28 -118 -2 -14 -13 -25 -29 -25 -37 0 -8 -13 -13 -38 -13 -26 0 -45 -7
-56 -19 -10 -11 -30 -25 -46 -31 -25 -11 -33 -9 -56 9 -15 12 -40 21 -56 21
-39 0 -88 -48 -88 -87 0 -27 -1 -28 -48 -25 -41 3 -54 -1 -78 -21 -25 -22 -29
-31 -27 -76 1 -48 -1 -51 -23 -51 -34 0 -74 -42 -74 -78 0 -21 -7 -32 -25 -40
-26 -12 -40 -48 -33 -85 4 -20 1 -23 -19 -19 -42 8 -73 -7 -90 -43 -13 -28
-14 -39 -5 -60 16 -35 15 -43 -7 -50 -29 -9 -47 -61 -33 -98 10 -25 8 -33 -8
-55 -24 -29 -26 -84 -5 -102 11 -9 14 -22 9 -46 -7 -40 14 -80 50 -94 15 -5
25 -20 29 -39 4 -17 15 -39 27 -51 l20 -20 -22 -87 c-31 -128 -31 -280 1 -348
13 -27 23 -68 23 -91 0 -47 -57 -192 -109 -276 -45 -73 -48 -121 -9 -154 15
-13 38 -24 51 -24 63 0 77 -41 21 -60 -55 -18 -73 -92 -32 -133 10 -10 13 -27
9 -55 -7 -56 14 -89 64 -98 55 -10 61 -18 61 -83 0 -97 63 -185 151 -212 35
-10 50 -8 142 20 56 17 110 31 120 31 26 0 27 8 19 79 -7 51 -14 69 -39 95
-32 33 -40 71 -21 106 7 13 6 21 -5 30 -18 15 -19 40 -4 90 7 21 9 54 5 74 -6
31 -12 37 -47 48 -50 14 -95 55 -105 93 -5 20 7 68 44 179 73 214 75 226 77
461 0 133 6 233 14 273 13 59 13 64 -6 85 -111 120 -85 321 68 528 175 238
498 417 864 479 l100 17 -72 36 c-116 59 -244 109 -265 104 -11 -3 -21 0 -24
8 -5 12 -28 21 -121 50 -7 2 -22 -8 -35 -23z"/>
<path d="M3585 2359 c-55 -16 -108 -29 -118 -29 -11 0 -17 -5 -13 -12 59 -141
40 -285 -48 -371 -45 -42 -169 -109 -268 -143 -448 -152 -1179 -63 -1983 241
-157 59 -383 156 -433 186 -151 88 146 -160 369 -309 811 -541 1627 -706 2289
-462 186 68 436 214 525 305 69 72 89 124 93 248 2 59 1 132 -2 161 l-7 53
-67 5 c-37 3 -81 12 -99 21 -46 24 -90 73 -98 107 -8 37 -12 37 -140 -1z"/>
</g>
</svg>
